HIERARCHY
ROOT Root
{
	OFFSET 0.00000 0.00000 0.00000
	CHANNELS 6 Xposition Yposition Zposition Zrotation Xrotation Yrotation
	JOINT Hips
	{
		OFFSET 0 0 0	
		CHANNELS 3 Zrotation Xrotation Yrotation
		JOINT Spine
		{
			OFFSET 0 4 0	
			CHANNELS 3 Zrotation Xrotation Yrotation
			JOINT Spine1
			{
				OFFSET 0 19.4 0	
				CHANNELS 3 Zrotation Xrotation Yrotation
				JOINT Spine2
				{
					OFFSET 0 16.6 0	
					CHANNELS 3 Zrotation Xrotation Yrotation
					JOINT LeftCollar
					{
						OFFSET 0 10 0	
						CHANNELS 3 Zrotation Xrotation Yrotation
						JOINT LeftArm
						{
							OFFSET 15.6 -2 3	
							CHANNELS 3 Zrotation Xrotation Yrotation
							JOINT LeftForeArm
							{
								OFFSET 3.5 -27 -1	
								CHANNELS 3 Zrotation Xrotation Yrotation
								JOINT LeftHand
								{
									OFFSET 1 -27 1	
									CHANNELS 3 Zrotation Xrotation Yrotation
									End Site
									{
										OFFSET 0 -15 0
									}
								}
							}
						}
					}
					JOINT RightCollar
					{
						OFFSET 0 10 0	
						CHANNELS 3 Zrotation Xrotation Yrotation
						JOINT RightArm
						{
							OFFSET -15.6 -2 3	
							CHANNELS 3 Zrotation Xrotation Yrotation
							JOINT RightForeArm
							{
								OFFSET -3.5 -27 -1	
								CHANNELS 3 Zrotation Xrotation Yrotation
								JOINT RightHand
								{
									OFFSET -1 -27 1	
									CHANNELS 3 Zrotation Xrotation Yrotation
									End Site
									{
										OFFSET 0 -15 0
									}
								}
							}
						}
					}
					JOINT Neck
					{
						OFFSET 0 10 0	
						CHANNELS 3 Zrotation Xrotation Yrotation
						JOINT Head
						{
							OFFSET 0 12.7 3	
							CHANNELS 3 Zrotation Xrotation Yrotation
							End Site
							{
								OFFSET 0 12.7 3
							}
						}
					}
				}
			}
		}
	}
	JOINT LeftHip
	{
		OFFSET 0 0 0	
		CHANNELS 3 Zrotation Xrotation Yrotation
		JOINT LeftUpLeg
		{
			OFFSET 8.8 -6 0	
			CHANNELS 3 Zrotation Xrotation Yrotation
			JOINT LeftLeg
			{
				OFFSET 0 -39 2	
				CHANNELS 3 Zrotation Xrotation Yrotation
				JOINT LeftFoot
				{
					OFFSET 0 -43 -2	
					CHANNELS 3 Zrotation Xrotation Yrotation
					JOINT LeftFootFront
					{
						OFFSET 0 -7 8.5	
						CHANNELS 3 Zrotation Xrotation Yrotation
						End Site
						{
							OFFSET 0 -0.5 9
						}
					}
				}
				JOINT LeftHeel
				{
					OFFSET 0 -43 -2	
					CHANNELS 3 Zrotation Xrotation Yrotation
					End Site
					{
						OFFSET 0 -7.5 -5
					}
				}
			}
		}
	}
	JOINT RightHip
	{
		OFFSET 0 0 0	
		CHANNELS 3 Zrotation Xrotation Yrotation
		JOINT RightUpLeg
		{
			OFFSET -8.8 -6 0	
			CHANNELS 3 Zrotation Xrotation Yrotation
			JOINT RightLeg
			{
				OFFSET 0 -39 2	
				CHANNELS 3 Zrotation Xrotation Yrotation
				JOINT RightFoot
				{
					OFFSET 0 -43 -2	
					CHANNELS 3 Zrotation Xrotation Yrotation
					JOINT RightFootFront
					{
						OFFSET 0 -7 8.5	
						CHANNELS 3 Zrotation Xrotation Yrotation
						End Site
						{
							OFFSET 0 -0.5 9
						}
					}
				}
				JOINT RightHeel
				{
					OFFSET 0 -43 -2	
					CHANNELS 3 Zrotation Xrotation Yrotation
					End Site
					{
						OFFSET 0 -7.5 -5
					}
				}
			}
		}
	}
}
MOTION
Frames: 8
Frame Time: 0.008
0 95.481 0 -0 0 -0 0.1257 -0.92982 1.7477 0.44756 0.095407 0.77334 0.44756 0.095408 0.77334 0.37604 0.079736 0.64965 -0 0 -0 -1.5128 0.46613 -0.78287 0.31421 0.45231 -1.1248 -0 0 -0 -0 0 -0 -0.073041 0.01752 -1.0177 0.010508 0.26071 -0.15207 -0 0 -0 -0.55306 -0.18155 -1.026 -0.55306 -0.18155 -1.026 0.1257 -0.92982 1.7477 0.32212 0.2333 -0.0063051 -0.0075583 0.74126 -1.3587 -0 0 -0 -0 0 -0 -0 0 -0 0.1257 -0.92982 1.7477 0.27578 -0.2629 1.5005 -0.032743 1.0293 -2.9075 -0 0 -0 -0 0 -0 -0 0 -0 
0 95.481 0 -0 0 -0 0.12916 -0.93445 1.7459 0.44584 0.097221 0.77401 0.44584 0.097221 0.77401 0.37459 0.081261 0.65022 -0 0 -0 -1.5129 0.46472 -0.78516 0.31514 0.45402 -1.1264 -0 0 -0 -0 0 -0 -0.069976 0.017304 -1.0163 0.0097796 0.26175 -0.15261 -0 0 -0 -0.55282 -0.18087 -1.0262 -0.55282 -0.18087 -1.0262 0.12916 -0.93445 1.7459 0.3191 0.23802 -0.0056706 -0.0085945 0.74155 -1.3572 -0 0 -0 -0 0 -0 -0 0 -0 0.12916 -0.93445 1.7459 0.27308 -0.25729 1.5005 -0.033022 1.0292 -2.9048 -0 0 -0 -0 0 -0 -0 0 -0 
0 95.481 0 -0 0 -0 0.13332 -0.94009 1.7436 0.44372 0.099499 0.77485 0.44372 0.099499 0.77485 0.37282 0.083176 0.65092 -0 0 -0 -1.5129 0.4627 -0.78816 0.31621 0.4562 -1.1283 -0 0 -0 -0 0 -0 -0.066116 0.016844 -1.0148 0.00897 0.26305 -0.15306 -0 0 -0 -0.5525 -0.18015 -1.0266 -0.5525 -0.18015 -1.0266 0.13332 -0.94009 1.7436 0.31548 0.24373 -0.0048445 -0.0098575 0.74208 -1.3555 -0 0 -0 -0 0 -0 -0 0 -0 0.13332 -0.94009 1.7436 0.26983 -0.25037 1.5005 -0.033337 1.029 -2.9014 -0 0 -0 -0 0 -0 -0 0 -0 
0 95.481 0 -0 0 -0 0.13809 -0.94666 1.7408 0.44121 0.10226 0.77584 0.44121 0.10226 0.77584 0.37071 0.085494 0.65176 -0 0 -0 -1.5126 0.45995 -0.79198 0.3174 0.4589 -1.1302 -0 0 -0 -0 0 -0 -0.061448 0.016 -1.0134 0.0081898 0.26467 -0.15331 -0 0 -0 -0.55206 -0.17944 -1.0269 -0.55206 -0.17944 -1.0269 0.13809 -0.94666 1.7408 0.31132 0.25034 -0.0038076 -0.011352 0.743 -1.3533 -0 0 -0 -0 0 -0 -0 0 -0 0.13809 -0.94666 1.7408 0.26608 -0.24215 1.5002 -0.033665 1.0287 -2.8971 -0 0 -0 -0 0 -0 -0 0 -0 
0 95.481 0 -0 0 -0 0.14325 -0.95389 1.7376 0.43838 0.10543 0.77696 0.43838 0.10543 0.77696 0.36833 0.088159 0.6527 -0 0 -0 -1.5122 0.45636 -0.79667 0.3187 0.46208 -1.1321 -0 0 -0 -0 0 -0 -0.05603 0.014643 -1.012 0.0075214 0.26659 -0.15333 -0 0 -0 -0.5515 -0.17884 -1.0273 -0.5515 -0.17884 -1.0273 0.14325 -0.95389 1.7376 0.3068 0.2576 -0.0025966 -0.013035 0.74442 -1.3509 -0 0 -0 -0 0 -0 -0 0 -0 0.14325 -0.95389 1.7376 0.26201 -0.23285 1.4996 -0.033984 1.0282 -2.8917 -0 0 -0 -0 0 -0 -0 0 -0 
0 95.481 0 -0 0 -0 0.14843 -0.96128 1.734 0.4354 0.10882 0.77818 0.4354 0.10882 0.77817 0.36583 0.091013 0.65372 -0 0 -0 -1.5115 0.45207 -0.80217 0.3201 0.4656 -1.1338 -0 0 -0 -0 0 -0 -0.050071 0.01282 -1.0109 0.0070549 0.26872 -0.15311 -0 0 -0 -0.55086 -0.17836 -1.0277 -0.55086 -0.17836 -1.0277 0.14843 -0.96128 1.734 0.30223 0.26501 -0.0012899 -0.014805 0.74642 -1.348 -0 0 -0 -0 0 -0 -0 0 -0 0.14843 -0.96128 1.734 0.25784 -0.22289 1.4983 -0.034216 1.0275 -2.8853 -0 0 -0 -0 0 -0 -0 0 -0 
0 95.481 0 -0 0 -0 0.15328 -0.96821 1.7302 0.43244 0.11221 0.77941 0.43244 0.11221 0.77941 0.36335 0.093859 0.65477 -0 0 -0 -1.5109 0.44726 -0.80834 0.32164 0.46928 -1.1352 -0 0 -0 -0 0 -0 -0.043922 0.010511 -1.0102 0.0069228 0.27097 -0.15277 -0 0 -0 -0.55019 -0.17806 -1.0281 -0.55019 -0.17806 -1.0281 0.15328 -0.96821 1.7302 0.29788 0.27202 -0.00010203 -0.016591 0.74898 -1.3449 -0 0 -0 -0 0 -0 -0 0 -0 0.15328 -0.96821 1.7302 0.25385 -0.21289 1.4964 -0.034358 1.0263 -2.878 -0 0 -0 -0 0 -0 -0 0 -0 
0 95.481 0 -0 0 -0 0.15764 -0.97437 1.7263 0.42959 0.1154 0.78065 0.42959 0.1154 0.78065 0.36096 0.096544 0.65581 -0 0 -0 -1.5105 0.44223 -0.81507 0.32343 0.473 -1.1364 -0 0 -0 -0 0 -0 -0.037713 0.0079402 -1.0098 0.0071646 0.27331 -0.15254 -0 0 -0 -0.54952 -0.17783 -1.0285 -0.54952 -0.17783 -1.0285 0.15764 -0.97437 1.7263 0.2939 0.27843 0.00072926 -0.018368 0.75199 -1.3413 -0 0 -0 -0 0 -0 -0 0 -0 0.15764 -0.97437 1.7263 0.25012 -0.20306 1.4935 -0.034396 1.0246 -2.8697 -0 0 -0 -0 0 -0 -0 0 -0 
